<?xml version="1.0" encoding="UTF-8" standalone="no"?>
<!DOCTYPE svg PUBLIC "-//W3C//DTD SVG 1.1//EN" "http://www.w3.org/Graphics/SVG/1.1/DTD/svg11.dtd">
<svg width="100%" height="100%" viewBox="0 0 128 50" version="1.1" xmlns="http://www.w3.org/2000/svg" xmlns:xlink="http://www.w3.org/1999/xlink" xml:space="preserve" xmlns:serif="http://www.serif.com/" style="fill-rule:evenodd;clip-rule:evenodd;stroke-linejoin:round;stroke-miterlimit:2;">
    <path d="M125.109,20.367L119.29,20.367C117.489,20.367 115.78,21.203 114.689,22.622L98.923,41.461L98.923,23.276C98.923,21.676 97.613,20.367 96.013,20.367C94.94,20.367 94.013,20.949 93.504,21.804L81.629,42.189C80.392,44.025 78.537,43.643 77.992,43.48C77.446,43.316 75.646,42.607 75.646,40.352L75.646,35.642L87.266,13.893C88.903,10.984 88.885,7.528 87.212,4.637C85.521,1.728 82.502,0 79.156,0C74.01,0 69.827,4.182 69.827,9.311L69.827,39.988C69.827,41.989 68.19,43.625 66.19,43.625C64.19,43.625 62.553,41.989 62.553,39.988L62.553,34.897C62.553,26.877 56.025,20.349 48.005,20.349C44.114,20.349 40.459,21.858 37.713,24.604C37.313,25.004 36.931,25.44 36.585,25.877C36.567,25.895 36.567,25.895 36.549,25.913L30.112,33.987C29.821,33.314 29.475,32.66 29.039,32.042L21.856,21.585C21.328,20.822 20.492,20.367 19.583,20.331C18.673,20.294 17.782,20.694 17.2,21.403L0.652,41.77C-0.366,43.025 -0.166,44.844 1.071,45.862C2.325,46.88 4.144,46.68 5.162,45.444L19.255,28.095L24.238,35.351C25.365,36.988 25.493,39.024 24.565,40.788C24.42,41.079 24.238,41.352 24.038,41.607L24.02,41.625C24.02,41.625 24.02,41.643 24.002,41.643C23.02,42.88 21.547,43.607 19.892,43.607L15.091,43.607C13.491,43.607 12.181,44.916 12.181,46.517C12.181,48.117 13.491,49.426 15.091,49.426L19.91,49.426C23.329,49.426 26.493,47.862 28.566,45.262L28.584,45.244L33.93,38.533C35.549,44.789 41.259,49.426 48.005,49.426L50.915,49.426C52.515,49.426 53.825,48.117 53.825,46.517C53.825,44.916 52.515,43.607 50.915,43.607L48.005,43.607C43.186,43.607 39.277,39.697 39.277,34.878C39.277,32.551 40.186,30.35 41.841,28.714C43.496,27.059 45.678,26.15 48.005,26.15C52.824,26.15 56.734,30.059 56.734,34.878L56.734,39.97C56.734,45.189 60.971,49.426 66.19,49.426C68.663,49.426 70.918,48.462 72.609,46.917C73.628,47.88 74.882,48.608 76.319,49.044C77.228,49.317 78.138,49.444 79.01,49.444C81.993,49.444 84.775,47.971 86.521,45.298C86.557,45.262 86.575,45.207 86.593,45.171L93.085,34.024L93.085,44.862C93.085,46.808 94.267,48.499 96.104,49.153C96.631,49.335 97.159,49.426 97.686,49.426C99.013,49.426 100.286,48.844 101.178,47.789L119.18,26.277C119.217,26.241 119.253,26.204 119.271,26.15L125.09,26.15C126.691,26.15 128,24.84 128,23.24C128,21.64 126.709,20.367 125.109,20.367ZM75.646,9.311C75.646,7.383 77.21,5.819 79.156,5.819C80.974,5.819 81.884,7.037 82.193,7.565C82.502,8.092 83.102,9.474 82.211,11.056C82.193,11.075 82.193,11.111 82.175,11.129L75.646,23.295L75.646,9.311Z" style="fill:white;fill-rule:nonzero;"/>
</svg>
